<svg xmlns="http://www.w3.org/2000/svg" version="1.1" xmlns:xlink="http://www.w3.org/1999/xlink" width="200" height="200"><svg xmlns="http://www.w3.org/2000/svg" version="1.1" xmlns:xlink="http://www.w3.org/1999/xlink" width="200" height="200"><svg xmlns="http://www.w3.org/2000/svg" version="1.1" xmlns:xlink="http://www.w3.org/1999/xlink" viewBox="0 0 200 200"><rect width="200" height="200" fill="url('#gradient')"></rect><defs><linearGradient id="gradient" gradientTransform="rotate(45 0.5 0.5)"><stop offset="0%" stop-color="#e8c300"></stop><stop offset="100%" stop-color="#ff3131"></stop></linearGradient></defs><g><g fill="#ffffff" transform="matrix(4.996888260254597,0,0,4.996888260254597,26.270056746333125,137.5015296631183)" stroke="#ffffff" stroke-width="0.2"><path d="M7.47 0L5.17-3.94L4.24-3.01L4.24 0L0.95 0L0.95-15.01L4.24-15.01L4.24-7.04L4.57-7.48L7.05-10.57L11.00-10.57L7.29-6.22L11.24 0L7.47 0ZM15.33-10.57L15.33 0L12.03 0L12.03-10.57L15.33-10.57ZM11.84-13.29L11.84-13.29Q11.84-13.99 12.34-14.44Q12.85-14.89 13.66-14.89Q14.47-14.89 14.98-14.44Q15.49-13.99 15.49-13.29Q15.49-12.59 14.98-12.14Q14.47-11.69 13.66-11.69Q12.85-11.69 12.34-12.14Q11.84-12.59 11.84-13.29ZM23.81-10.64L23.75-7.59L22.67-7.67Q21.11-7.67 20.67-6.69L20.67-6.69L20.67 0L17.38 0L17.38-10.57L20.47-10.57L20.58-9.21Q21.41-10.76 22.89-10.76L22.89-10.76Q23.42-10.76 23.81-10.64L23.81-10.64ZM28.41-10.57L28.41 0L25.11 0L25.11-10.57L28.41-10.57ZM24.91-13.29L24.91-13.29Q24.91-13.99 25.42-14.44Q25.93-14.89 26.74-14.89Q27.55-14.89 28.06-14.44Q28.56-13.99 28.56-13.29Q28.56-12.59 28.06-12.14Q27.55-11.69 26.74-11.69Q25.93-11.69 25.42-12.14Q24.91-12.59 24.91-13.29Z"></path></g></g></svg></svg><style>@media (prefers-color-scheme: light) { :root { filter: none; } }
@media (prefers-color-scheme: dark) { :root { filter: none; } }
</style></svg>